<?xml version="1.0" encoding="UTF-8" standalone="no"?>
<!-- The icon can be used freely in both personal and commercial projects with no attribution required, but always appreciated. 
You may NOT sub-license, resell, rent, redistribute or otherwise transfer the icon without express written permission from iconmonstr.com -->

<svg
   xmlns:dc="http://purl.org/dc/elements/1.1/"
   xmlns:cc="http://creativecommons.org/ns#"
   xmlns:rdf="http://www.w3.org/1999/02/22-rdf-syntax-ns#"
   xmlns:svg="http://www.w3.org/2000/svg"
   xmlns="http://www.w3.org/2000/svg"
   xmlns:sodipodi="http://sodipodi.sourceforge.net/DTD/sodipodi-0.dtd"
   xmlns:inkscape="http://www.inkscape.org/namespaces/inkscape"
   version="1.1"
   x="0px"
   y="0px"
   width="512px"
   height="512px"
   viewBox="0 0 512 512"
   enable-background="new 0 0 512 512"
   xml:space="preserve"
   id="svg2"
   inkscape:version="0.91 r13725"
   sodipodi:docname="google.svg"><metadata
     id="metadata11"><rdf:RDF><cc:Work
         rdf:about=""><dc:format>image/svg+xml</dc:format><dc:type
           rdf:resource="http://purl.org/dc/dcmitype/StillImage" /><dc:title /></cc:Work></rdf:RDF></metadata><defs
     id="defs9" /><sodipodi:namedview
     pagecolor="#ffffff"
     bordercolor="#666666"
     borderopacity="1"
     objecttolerance="10"
     gridtolerance="10"
     guidetolerance="10"
     inkscape:pageopacity="0"
     inkscape:pageshadow="2"
     inkscape:window-width="1437"
     inkscape:window-height="865"
     id="namedview7"
     showgrid="false"
     inkscape:zoom="1.3037281"
     inkscape:cx="217.39356"
     inkscape:cy="250.37999"
     inkscape:window-x="604"
     inkscape:window-y="74"
     inkscape:window-maximized="0"
     inkscape:current-layer="svg2" /><g
     id="google-plus-icon"
     style="fill:#000000"><path
       d="M462,141.347h-54.621v54.622h-27.311v-54.622h-54.622v-27.311h54.622V59.416h27.311v54.621H462V141.347z M307.583,367.26    c0,40.943-37.384,90.787-131.434,90.787C107.365,458.047,50,428.379,50,378.478c0-38.514,24.383-88.511,138.323-88.511    c-16.922-13.792-21.075-33.077-10.733-53.959c-66.714,0-100.879-39.222-100.879-89.023c0-48.731,36.242-93.032,110.15-93.032    c18.66,0,118.398,0,118.398,0l-26.457,27.77h-31.079c21.925,12.562,33.586,38.433,33.586,66.949    c0,26.175-14.413,47.375-34.983,63.279c-36.503,28.222-27.158,43.98,11.087,71.872C295.121,312.074,307.583,333.882,307.583,367.26    z M233.738,150.453c-5.506-41.905-32.806-76.284-64.704-77.243c-31.909-0.949-53.309,31.119-47.798,73.035    c5.509,41.905,35.834,71.178,67.749,72.139C220.882,219.333,239.242,192.363,233.738,150.453z M266.631,371.463    c0-34.466-31.441-67.317-84.192-67.317c-47.542-0.523-87.832,30.042-87.832,65.471c0,36.154,34.335,66.25,81.879,66.25    C237.267,435.866,266.631,407.617,266.631,371.463z"
       id="path5"
       style="fill:#337ab7;fill-opacity:1" /></g></svg>